<?xml version="1.0" encoding="utf-8"?>
<!-- Generator: Adobe Illustrator 16.0.0, SVG Export Plug-In . SVG Version: 6.00 Build 0)  -->
<!DOCTYPE svg PUBLIC "-//W3C//DTD SVG 1.1//EN" "http://www.w3.org/Graphics/SVG/1.1/DTD/svg11.dtd">
<svg version="1.1" id="Layer_1" xmlns="http://www.w3.org/2000/svg" xmlns:xlink="http://www.w3.org/1999/xlink" x="0px" y="0px"
	 width="32px" height="50px" viewBox="0 0 32 50" enable-background="new 0 0 32 50" xml:space="preserve">
<g>
	<path fill="#72917E" d="M23.096,34.135c-1.118,0-2.526-0.888-4.432-2.794c-0.419-0.419-0.799-0.826-1.129-1.211h-2.722
		c-0.24,1.842-1.13,3.18-2.34,3.504c-0.17,0.045-0.339,0.068-0.502,0.068c-0.68,0-1.299-0.399-1.844-1.188
		c-0.124,0.411-0.324,0.757-0.597,1.029c-0.361,0.362-0.797,0.546-1.295,0.546c-1.117,0-2.525-0.888-4.431-2.794
		c-1.027-1.026-1.748-1.898-2.204-2.666c-0.475-0.635-0.729-1.392-0.729-2.178c0-0.292,0.024-0.596,0.078-0.958
		C0.474,16.192,6.715,14.374,9.714,13.5c0.982-0.286,1.697-0.431,2.125-0.431c0.11,0,0.443,0,0.54,0.217
		c0.086,0.196-0.095,0.403-0.116,0.426c-5.103,1.298-6.499,2.828-6.783,3.888c-0.29,1.081,0.447,1.99,0.829,2.373
		c0.395-0.07,0.769-0.104,1.143-0.104H26.13v3.302c1.076,0.352,2.107,0.984,2.913,1.79c2.087,2.087,2.729,5.246,1.348,6.628
		c-0.361,0.361-0.797,0.544-1.295,0.544l0,0c-0.953,0-2.146-0.666-3.645-2.038l-0.543,0.026c0.415,1.462,0.229,2.72-0.518,3.468
		C24.029,33.951,23.593,34.135,23.096,34.135z"/>
	<path d="M11.839,13.199c0.716,0,0.328,0.426,0.328,0.426c-9.505,2.376-6.638,5.776-5.901,6.489C6.651,20.042,7.046,20,7.452,20H9h4
		h13v3.267c1.032,0.321,2.087,0.922,2.951,1.787c2.018,2.018,2.708,5.083,1.348,6.444c-0.353,0.353-0.759,0.506-1.203,0.506
		c-1.049,0-2.308-0.861-3.557-2.004h-0.803c0.429,1.38,0.341,2.719-0.438,3.498c-0.353,0.353-0.759,0.507-1.203,0.507
		c-1.27,0-2.845-1.261-4.34-2.756c-0.413-0.413-0.806-0.832-1.161-1.249h-2.896c-0.198,1.736-1.022,3.177-2.258,3.508
		c-0.162,0.043-0.318,0.064-0.469,0.064c-0.766,0-1.385-0.54-1.898-1.381c-0.099,0.493-0.304,0.929-0.635,1.26
		c-0.353,0.353-0.759,0.508-1.204,0.508c-1.27,0-2.845-1.262-4.339-2.756c-0.878-0.878-1.675-1.784-2.184-2.641
		C1.271,27.972,1,27.246,1,26.451c0-0.319,0.031-0.632,0.076-0.939c-0.462-9.125,5.422-10.94,8.674-11.887
		C10.847,13.306,11.481,13.199,11.839,13.199 M11.839,12.939v0.26V12.939c-0.447,0-1.154,0.143-2.162,0.437
		C6.649,14.258,0.351,16.093,0.815,25.5c-0.051,0.357-0.075,0.66-0.075,0.951c0,0.814,0.264,1.598,0.763,2.267
		c0.446,0.754,1.173,1.635,2.208,2.669c1.932,1.932,3.369,2.832,4.523,2.832c0.534,0,1-0.196,1.388-0.584
		c0.233-0.233,0.416-0.516,0.546-0.845c0.535,0.692,1.14,1.042,1.803,1.042c0.175,0,0.355-0.024,0.536-0.073
		c1.236-0.331,2.151-1.662,2.419-3.499h2.549c0.323,0.374,0.691,0.768,1.097,1.173c1.932,1.932,3.369,2.832,4.523,2.832
		c0.533,0,1-0.196,1.387-0.583c0.752-0.752,0.963-1.986,0.598-3.422h0.358c1.489,1.349,2.687,2.005,3.657,2.005
		c0.533,0,1-0.196,1.387-0.583c1.455-1.456,0.825-4.639-1.348-6.812c-0.797-0.797-1.812-1.428-2.875-1.791V20v-0.26H26H13H9H7.452
		c-0.36,0-0.721,0.031-1.098,0.094c-0.375-0.39-1.01-1.225-0.749-2.2c0.275-1.027,1.648-2.513,6.625-3.757l0.076-0.019l0.053-0.058
		c0.043-0.048,0.256-0.301,0.138-0.566C12.368,12.939,11.97,12.939,11.839,12.939L11.839,12.939z"/>
</g>
<path fill="#2D332F" d="M9.588,22.865c-1.858,0.498-1.563,3.168-0.824,5.924c0.739,2.756,1.817,5.217,3.676,4.719
	s2.793-3.498,2.055-6.254C13.756,24.498,11.447,22.367,9.588,22.865z"/>
<path fill="#72917E" d="M1,26.451C1,22.889,3.889,20,7.452,20H13v10H4.548C2.589,30,1,28.411,1,26.451z"/>
<path fill="#72917E" d="M1.646,25.66c-1.36,1.36,0.231,3.525,2.249,5.543s4.183,3.609,5.543,2.248
	c1.361-1.36,0.67-4.426-1.347-6.443C6.073,24.99,3.007,24.299,1.646,25.66z"/>
<rect x="13" y="20" fill="#1FC7D4" width="1" height="10"/>
<rect x="9" y="20" fill="#72917E" width="17" height="10"/>
<path fill="#72917E" d="M22.507,23.706c-1.36,1.36,0.231,3.525,2.249,5.543s4.182,3.608,5.543,2.249
	c1.36-1.361,0.67-4.427-1.348-6.444S23.867,22.345,22.507,23.706z"/>
<path fill="#72917E" d="M16.507,25.706c-1.36,1.36,0.231,3.525,2.249,5.543c2.018,2.018,4.182,3.608,5.543,2.249
	c1.36-1.361,0.67-4.427-1.348-6.444S17.867,24.345,16.507,25.706z"/>
<g>
	<g transform="translate(2)">
		<path fill="none" stroke="#452A7A" stroke-width="1.1087" stroke-linecap="round" d="M20.371,17.034
			c0.063,0.827-0.271,2.481-2.12,2.481"/>
		<path fill="none" stroke="#452A7A" stroke-width="1.1087" stroke-linecap="round" d="M20.386,17.034
			c-0.063,0.827,0.271,2.481,2.12,2.481"/>
		<path fill="#452A7A" d="M16.828,15.187c0,1.049-0.426,1.425-0.951,1.425c-0.524,0-0.949-0.375-0.949-1.425
			c0-1.05,0.425-1.426,0.949-1.426C16.402,13.761,16.828,14.137,16.828,15.187z"/>
		<path fill="#452A7A" d="M25.379,15.187c0,1.049-0.424,1.425-0.95,1.425c-0.524,0-0.949-0.375-0.949-1.425
			c0-1.05,0.425-1.426,0.949-1.426C24.955,13.761,25.379,14.137,25.379,15.187z"/>
	</g>
	<path fill="#FBC845" stroke="#020202" stroke-width="0.1684" stroke-linejoin="round" stroke-miterlimit="10" d="M18.26,26.405
		c0,0,2.957,1.339,3.234,2.771l3.232-2.679l-0.878-0.37l-0.461,0.37l-3.188-0.047l-0.416-0.23L18.26,26.405z"/>
	<g>
		<g>
			<path fill="#72917E" d="M25.454,26.596c-1.268,0-2.437-0.556-3.206-1.524c-0.133-0.169-0.245-0.333-0.34-0.497
				c-0.117,0.183-0.249,0.354-0.393,0.51c-0.769,0.838-1.872,1.319-3.025,1.319c-2.211,0-4.01-1.692-4.01-3.771
				c0-0.609,0.165-1.205,0.489-1.77c-0.729-1.345-1.113-2.874-1.113-4.428l0.004-0.122l0.089-0.042l-0.1-0.087
				c0.027-0.446,0.07-0.896,0.142-1.329c-0.345-0.899-1.274-2.262-2.756-3.979c-4.366-5.056,0.68-9.809,0.731-9.856l0.242,0.111
				c-0.067,1.94,2.023,2.289,2.112,2.302c3.818,1.722,4.191,4.237,4.204,5.077c0.162-0.081,0.327-0.156,0.496-0.226l-0.286-1.18
				c0.211-1.56,2.876-2.167,2.989-2.192c0.174,0.025,2.785,0.633,3.001,2.138l-0.273,1.163c0.165,0.063,0.328,0.131,0.488,0.205
				c0.034-0.975,0.522-3.324,4.168-4.974c0.126-0.025,2.215-0.378,2.149-2.313l0.241-0.111c0.052,0.047,5.096,4.8,0.732,9.856
				c-1.325,1.533-2.212,2.792-2.637,3.74c0.141,0.556,0.207,1.197,0.207,1.819c0,1.494-0.357,2.971-1.033,4.278
				c0.455,0.631,0.696,1.359,0.696,2.112C29.465,24.904,27.665,26.596,25.454,26.596z"/>
			<path fill="#020202" d="M31.401,1.125c0,0,5.044,4.647,0.721,9.656c-1.526,1.767-2.294,2.96-2.659,3.775
				c0.123,0.605,0.194,1.233,0.194,1.878c0,1.566-0.39,3.029-1.059,4.292c0.45,0.593,0.722,1.314,0.722,2.099
				c0,2.004-1.73,3.626-3.866,3.626c-1.271,0-2.389-0.583-3.093-1.47c-0.173-0.219-0.326-0.451-0.445-0.702
				c-0.141,0.255-0.31,0.493-0.507,0.707c-0.71,0.774-1.747,1.272-2.919,1.272c-2.134,0-3.866-1.623-3.866-3.627
				c0-0.646,0.195-1.242,0.511-1.767C14.418,19.571,14,18.059,14,16.435c0-0.065,0.006-0.128,0.008-0.193
				c-0.02,0.009-0.035,0.015-0.035,0.015l0.037-0.062c0.011-0.45,0.052-0.889,0.124-1.318c-0.293-0.811-1.05-2.082-2.789-4.097
				c-4.325-5.008,0.72-9.656,0.72-9.656c-0.072,2.09,2.234,2.45,2.234,2.45c4.222,1.909,4.111,4.782,4.074,5.176
				c0.266-0.143,0.537-0.27,0.817-0.38l-0.315-1.301c0.202-1.424,2.881-2.018,2.881-2.018s2.623,0.594,2.827,2.018l-0.3,1.233
				c0.273,0.1,0.542,0.214,0.802,0.344c-0.025-0.652,0.131-3.284,4.083-5.072C29.168,3.575,31.473,3.215,31.401,1.125 M11.87,0.913
				c-0.052,0.048-5.198,4.896-0.743,10.056c1.435,1.663,2.346,2.986,2.71,3.937c-0.066,0.416-0.104,0.847-0.115,1.282l0.075,0.002
				l0.04,0.046l-0.118-0.004l-0.003,0.071c-0.002,0.043-0.005,0.086-0.005,0.13c0,1.551,0.377,3.078,1.092,4.426
				c-0.311,0.566-0.469,1.162-0.469,1.771c0,2.159,1.864,3.915,4.154,3.915c1.194,0,2.335-0.497,3.131-1.365
				c0.1-0.108,0.193-0.223,0.281-0.343c0.069,0.106,0.147,0.213,0.232,0.321c0.798,1.004,2.007,1.579,3.319,1.579
				c2.291,0,4.154-1.756,4.154-3.915c0-0.755-0.231-1.485-0.672-2.124c0.66-1.309,1.009-2.779,1.009-4.266
				c0-0.602-0.061-1.221-0.182-1.843c0.433-0.926,1.299-2.144,2.576-3.622c4.454-5.16-0.69-10.008-0.743-10.056l-0.483,0.222
				c0.062,1.805-1.906,2.142-1.99,2.155l-0.074,0.022c-3.477,1.573-4.139,3.787-4.238,4.889c-0.062-0.026-0.124-0.052-0.188-0.077
				l0.24-0.987l0.005-0.109c-0.229-1.602-2.934-2.231-3.049-2.258h-0.126c-0.117,0.026-2.876,0.655-3.104,2.258l0.005,0.108
				l0.258,1.061c-0.065,0.028-0.13,0.057-0.194,0.087c-0.078-1.03-0.673-3.36-4.24-4.973L14.344,3.29
				c-0.084-0.014-2.053-0.35-1.991-2.155L11.87,0.913L11.87,0.913z"/>
		</g>
		
			<path fill="#2D332F" stroke="#020202" stroke-width="0.197" stroke-linecap="square" stroke-linejoin="bevel" stroke-miterlimit="10" d="
			M24.205,25.29c0,0.621-0.505,1.126-1.126,1.126h-2.575c-0.621,0-1.126-0.505-1.126-1.126l0,0c0-0.622,0.505-1.126,1.126-1.126
			h2.575C23.7,24.164,24.205,24.668,24.205,25.29L24.205,25.29z"/>
		<g>
			<path fill="#72917E" d="M31.401,1.125c0.071,2.09-2.233,2.45-2.233,2.45c-3.952,1.788-4.108,4.42-4.083,5.072
				c-0.992-0.499-2.094-0.784-3.258-0.784c-1.24,0-2.41,0.325-3.454,0.888c0.037-0.394,0.148-3.267-4.074-5.176
				c0,0-2.306-0.36-2.234-2.45c0,0-5.044,4.647-0.72,9.656c1.739,2.015,2.496,3.286,2.789,4.097
				c-0.072,0.429-0.113,0.868-0.124,1.318l-0.037,0.062c0,0,0.015-0.006,0.035-0.015C14.007,16.307,14,16.37,14,16.435
				c0,1.624,0.418,3.136,1.134,4.43c-0.316,0.525-0.511,1.122-0.511,1.767c0,2.004,1.732,3.627,3.866,3.627
				c1.172,0,2.209-0.498,2.919-1.272c0.197-0.214,0.366-0.452,0.507-0.707c0.119,0.251,0.272,0.483,0.445,0.702
				c0.704,0.887,1.822,1.47,3.093,1.47c2.136,0,3.866-1.623,3.866-3.626c0-0.784-0.271-1.505-0.722-2.099
				c0.669-1.262,1.059-2.725,1.059-4.292c0-0.646-0.071-1.273-0.194-1.878c0.365-0.815,1.133-2.009,2.659-3.775
				C36.445,5.772,31.401,1.125,31.401,1.125z"/>
		</g>
		<path fill="#CBFD41" d="M24.583,7.069c-0.204-1.424-2.827-2.018-2.827-2.018s-2.679,0.594-2.881,2.018l1.439,5.909l1.413,0.777
			l0.028,0.015l1.386-0.792L24.583,7.069z"/>
		<path fill="#2D332F" d="M14.767,13.721c0,0,0.53-0.624,0.53-1.728c0,0,0.814-0.098,0.624-1.297c0,0,2.874-5.234-2.93-6.677
			c-0.193-0.048-1.153-0.193-1.153-1.297c0,0-3.699,4.994,2.305,9.414C14.143,12.136,14.67,13.193,14.767,13.721z"/>
		<path fill="#2D332F" d="M29.001,13.721c0,0-0.529-0.624-0.529-1.728c0,0-0.815-0.098-0.623-1.297c0,0-2.875-5.234,2.93-6.677
			c0.191-0.048,1.151-0.193,1.151-1.297c0,0,3.699,4.994-2.305,9.414C29.625,12.136,29.098,13.193,29.001,13.721z"/>
		<polygon fill="#020202" points="20.314,12.979 19.629,10.366 20.639,12.347 20.513,9.501 21.431,12.42 21.594,7.394 
			22.098,12.293 22.943,9.465 22.836,12.401 23.952,9.627 23.142,12.979 21.756,13.771 		"/>
		<path fill="#020202" d="M18.875,7.069l0.197,0.883l-0.019-1.333l0.774,1.225l0.306-2.216l0.559,2.648l1.063-3.225l0.342,3.152
			l0.378-2.936l0.63,2.684l0.865-1.874l0.357,2.184l0.255-1.193c0,0-0.216-1.747-2.845-2.161
			C21.738,4.908,18.621,5.862,18.875,7.069z"/>
		<path fill="#80D0A4" stroke="#000000" stroke-width="0.1313" stroke-linejoin="round" stroke-miterlimit="10" d="M13.855,16.22
			h16.037c0,0-0.24,3.41-1.16,4.467H14.821C14.821,20.688,13.758,17.709,13.855,16.22z"/>
		<polygon opacity="0.5" fill="#262626" points="28.433,17.806 15.152,17.806 14.936,17.025 28.673,17.025 		"/>
		<polygon opacity="0.5" fill="#262626" points="28.433,18.875 15.152,18.875 14.936,18.093 28.673,18.093 		"/>
		<polygon opacity="0.5" fill="#262626" points="27.278,19.929 16.307,19.929 16.09,19.149 27.519,19.149 		"/>
		<path fill="#403D22" stroke="#000000" stroke-width="0.0438" stroke-miterlimit="10" d="M22.976,20.975
			c0,0-0.251-0.384-1.077-0.322v-0.001c-0.004,0-0.006,0.001-0.011,0c-0.004,0.001-0.006,0-0.011,0v0.001
			c-0.825-0.062-1.076,0.322-1.076,0.322c-0.937,0.937,0.81,1.766,0.81,1.766h0.267h0.021h0.267
			C22.165,22.741,23.912,21.912,22.976,20.975z"/>
		<g>
			<circle cx="17.974" cy="23.065" r="0.198"/>
			<path d="M18.676,23.534c0,0.109,0.09,0.198,0.199,0.198c0.106,0,0.197-0.089,0.197-0.198s-0.091-0.198-0.197-0.198
				C18.766,23.335,18.676,23.424,18.676,23.534z"/>
			<circle cx="18.171" cy="23.695" r="0.198"/>
			<circle cx="17.362" cy="23.624" r="0.198"/>
			<circle cx="17.938" cy="24.146" r="0.197"/>
		</g>
		<g>
			<circle cx="25.754" cy="23.065" r="0.198"/>
			<circle cx="24.854" cy="23.534" r="0.198"/>
			<circle cx="25.556" cy="23.695" r="0.198"/>
			<circle cx="26.366" cy="23.624" r="0.198"/>
			<circle cx="25.79" cy="24.146" r="0.198"/>
		</g>
	</g>
</g>
<path fill="#72917E" d="M15.8,48v-1.691h-3.864v-0.925l4.02-5.112h1.14v4.98h0.793v1.057h-0.793V48H15.8z M13.208,45.288h2.796
	V41.76L13.208,45.288z M18.691,48v-0.648c0.209-0.487,0.496-0.928,0.864-1.319c0.376-0.392,0.776-0.772,1.2-1.14
	c0.32-0.281,0.584-0.517,0.792-0.709c0.216-0.199,0.384-0.379,0.504-0.539s0.204-0.324,0.252-0.492
	c0.048-0.176,0.072-0.381,0.072-0.612c0-0.416-0.12-0.731-0.36-0.948c-0.24-0.216-0.64-0.324-1.199-0.324
	c-0.305,0-0.617,0.032-0.937,0.097c-0.312,0.063-0.612,0.151-0.899,0.264v-1.151c0.279-0.097,0.611-0.172,0.995-0.229
	c0.384-0.064,0.748-0.096,1.093-0.096c0.863,0,1.516,0.212,1.955,0.636c0.44,0.424,0.66,1.004,0.66,1.739
	c0,0.369-0.064,0.697-0.191,0.984c-0.129,0.28-0.305,0.549-0.528,0.805c-0.224,0.248-0.483,0.504-0.78,0.768
	c-0.367,0.32-0.716,0.632-1.044,0.936c-0.319,0.297-0.58,0.621-0.78,0.973h3.408V48H18.691z M26.502,43.68
	c-0.568,0-0.996-0.156-1.285-0.468c-0.279-0.319-0.42-0.724-0.42-1.212c0-0.568,0.141-1.016,0.42-1.344
	c0.289-0.336,0.717-0.504,1.285-0.504c0.567,0,0.991,0.168,1.271,0.504c0.279,0.328,0.42,0.775,0.42,1.344
	c0,0.488-0.141,0.893-0.42,1.212C27.493,43.523,27.069,43.68,26.502,43.68z M25.973,48l4.093-7.729h1.224L27.197,48H25.973z
	 M26.502,42.889c0.312,0,0.535-0.08,0.672-0.24c0.135-0.16,0.203-0.385,0.203-0.672c0-0.353-0.072-0.608-0.216-0.769
	c-0.136-0.168-0.356-0.252-0.659-0.252c-0.305,0-0.529,0.084-0.673,0.252c-0.136,0.16-0.204,0.416-0.204,0.769
	c0,0.287,0.068,0.512,0.204,0.672S26.189,42.889,26.502,42.889z M30.797,48.12c-0.567,0-0.996-0.156-1.283-0.468
	c-0.28-0.32-0.42-0.725-0.42-1.213c0-0.567,0.14-1.016,0.42-1.344c0.287-0.336,0.716-0.504,1.283-0.504
	c0.568,0,0.992,0.168,1.272,0.504c0.28,0.328,0.42,0.776,0.42,1.344c0,0.488-0.14,0.893-0.42,1.213
	C31.789,47.964,31.365,48.12,30.797,48.12z M30.797,47.328c0.313,0,0.537-0.08,0.672-0.24c0.137-0.16,0.205-0.384,0.205-0.672
	c0-0.352-0.072-0.607-0.217-0.768c-0.136-0.168-0.355-0.252-0.66-0.252c-0.304,0-0.527,0.084-0.672,0.252
	c-0.136,0.16-0.203,0.416-0.203,0.768c0,0.288,0.067,0.512,0.203,0.672C30.262,47.248,30.485,47.328,30.797,47.328z"/>
<path fill="#72917E" d="M6.416,20.25c0,0-4.915-3.958,5.751-6.625c0,0,0.874-0.958-2.417,0s-9.291,2.793-8.666,12.209L6.416,20.25z"
	/>
</svg>
