<?xml version="1.0" encoding="utf-8"?>
<!-- Generator: Adobe Illustrator 16.0.0, SVG Export Plug-In . SVG Version: 6.00 Build 0)  -->
<!DOCTYPE svg PUBLIC "-//W3C//DTD SVG 1.1//EN" "http://www.w3.org/Graphics/SVG/1.1/DTD/svg11.dtd">
<svg version="1.1" id="Layer_1" xmlns="http://www.w3.org/2000/svg" xmlns:xlink="http://www.w3.org/1999/xlink" x="0px" y="0px"
	 width="15px" height="32px" viewBox="0 0 15 32" enable-background="new 0 0 15 32" xml:space="preserve">
<g>
	<path fill="#72917E" d="M8.234,32.089c-1.117,0-2.525-0.888-4.431-2.794c-1.027-1.026-1.748-1.898-2.204-2.666
		c-0.475-0.635-0.729-1.392-0.729-2.178c0-0.299,0.025-0.607,0.08-0.974c-0.53-9.396,5.748-11.224,8.764-12.103
		c0.982-0.286,1.697-0.431,2.125-0.431c0.11,0,0.444,0,0.54,0.217c0.087,0.196-0.095,0.403-0.116,0.426
		c-5.163,1.313-6.54,2.865-6.796,3.941c-0.284,1.193,0.663,2.163,0.956,2.428c0.366-0.059,0.704-0.087,1.029-0.087h8.679v10.26
		h-1.317c-0.24,1.842-1.131,3.18-2.341,3.504c-0.17,0.045-0.339,0.068-0.502,0.068c-0.68,0-1.299-0.399-1.844-1.188
		c-0.124,0.411-0.324,0.757-0.598,1.029C9.168,31.905,8.732,32.089,8.234,32.089z"/>
	<path fill="#020202" d="M11.839,11.074c0.717,0,0.328,0.426,0.328,0.426C2.01,14.04,5.98,17.748,6.382,18.096
		C6.731,18.037,7.086,18,7.452,18h8.549v10h-1.303c-0.198,1.736-1.022,3.177-2.259,3.508c-0.162,0.043-0.318,0.064-0.469,0.064
		c-0.766,0-1.385-0.54-1.897-1.381c-0.099,0.493-0.304,0.929-0.636,1.26c-0.353,0.353-0.759,0.508-1.203,0.508
		c-1.269,0-2.845-1.262-4.339-2.756c-0.878-0.878-1.675-1.784-2.184-2.641C1.271,25.972,1,25.246,1,24.451
		c0-0.325,0.032-0.642,0.078-0.954C0.561,14.273,6.484,12.451,9.75,11.5C10.847,11.181,11.481,11.074,11.839,11.074 M11.839,10.814
		v0.26V10.814c-0.446,0-1.153,0.143-2.161,0.437c-3.046,0.887-9.382,2.732-8.861,12.235c-0.052,0.36-0.077,0.668-0.077,0.966
		c0,0.814,0.264,1.598,0.763,2.267c0.446,0.754,1.173,1.635,2.208,2.669c1.932,1.932,3.369,2.832,4.523,2.832
		c0.533,0,1-0.196,1.387-0.584c0.234-0.232,0.417-0.516,0.547-0.845c0.535,0.692,1.14,1.042,1.803,1.042
		c0.175,0,0.355-0.024,0.536-0.073c1.236-0.331,2.151-1.662,2.42-3.499h1.074h0.26V28V18v-0.26h-0.26H7.452
		c-0.314,0-0.638,0.025-0.987,0.079c-0.32-0.302-1.126-1.191-0.872-2.26c0.249-1.042,1.602-2.548,6.638-3.807l0.076-0.019
		l0.053-0.058c0.044-0.048,0.256-0.301,0.139-0.566C12.367,10.814,11.97,10.814,11.839,10.814L11.839,10.814z"/>
</g>
<path fill="#1E2621" d="M9.588,20.865c-1.858,0.498-1.563,3.168-0.824,5.924s1.817,5.217,3.676,4.719
	c1.859-0.498,2.794-3.498,2.056-6.254C13.756,22.498,11.447,20.367,9.588,20.865z"/>
<path fill="#72917E" d="M1,24.451C1,20.889,3.889,18,7.452,18H15v10H4.548C2.589,28,1,26.411,1,24.451z"/>
<path fill="#72917E" d="M1.646,23.66c-1.36,1.36,0.231,3.525,2.249,5.543s4.183,3.609,5.542,2.248
	c1.361-1.36,0.671-4.426-1.347-6.443C6.073,22.99,3.007,22.299,1.646,23.66z"/>
<path fill="#72917E" d="M6.417,18.125c0,0-4.916-3.958,5.75-6.625c0,0,0.874-0.958-2.417,0c-3.292,0.958-9.292,2.793-8.667,12.209
	L6.417,18.125z"/>
</svg>
