<?xml version="1.0" encoding="utf-8"?>
<!-- Generator: Adobe Illustrator 16.0.0, SVG Export Plug-In . SVG Version: 6.00 Build 0)  -->
<!DOCTYPE svg PUBLIC "-//W3C//DTD SVG 1.1//EN" "http://www.w3.org/Graphics/SVG/1.1/DTD/svg11.dtd">
<svg version="1.1" id="Layer_1" xmlns="http://www.w3.org/2000/svg" xmlns:xlink="http://www.w3.org/1999/xlink" x="0px" y="0px"
	 width="24px" height="32px" viewBox="0 0 24 32" enable-background="new 0 0 24 32" xml:space="preserve">
<g>
	<path fill="#72917E" d="M13.796,30.705c-0.964,0-2.175-0.763-3.812-2.4l-0.181-0.184L0.995,28.13v-9.688h14.563v2.632
		c1.18,0.169,2.423,0.813,3.348,1.737c1.828,1.828,2.368,4.495,1.156,5.707c-0.313,0.313-0.691,0.473-1.123,0.473
		c-0.001,0-0.001,0-0.001,0c-0.879,0-1.957-0.631-3.38-1.979v1.119h-0.027c0.078,0.898-0.133,1.623-0.612,2.103
		C14.605,30.546,14.228,30.705,13.796,30.705z"/>
	<path fill="#020202" d="M15.429,18.571v2.616c1.132,0.133,2.401,0.73,3.386,1.715c1.73,1.73,2.322,4.357,1.156,5.523
		c-0.303,0.303-0.651,0.435-1.032,0.435c-1.028,0-2.292-0.967-3.51-2.155V28h-0.041c0.102,0.857-0.058,1.638-0.561,2.141
		c-0.303,0.303-0.65,0.435-1.031,0.435c-1.088,0-2.438-1.08-3.72-2.362c-0.071-0.07-0.14-0.142-0.209-0.213H1.125v-9.429H15.429
		 M15.688,18.312h-0.26H1.125h-0.26v0.26V28v0.26h0.26h8.633l0.135,0.138c1.662,1.663,2.902,2.438,3.903,2.438
		c0.467,0,0.876-0.172,1.215-0.511c0.501-0.501,0.726-1.248,0.653-2.169L15.688,28v-0.69c1.342,1.233,2.383,1.811,3.25,1.811
		c0.468,0,0.877-0.172,1.216-0.511c0.616-0.615,0.827-1.632,0.579-2.788c-0.238-1.106-0.87-2.237-1.735-3.103
		c-0.914-0.915-2.137-1.561-3.31-1.757v-2.391V18.312L15.688,18.312z"/>
</g>
<g>
	<rect x="0.857" y="18.571" fill="#72917E" width="14.572" height="9.429"/>
	<path fill="#72917E" d="M8.149,23.463c-1.167,1.166,0.198,3.021,1.927,4.75c1.729,1.73,3.585,3.094,4.751,1.928
		c1.167-1.166,0.574-3.794-1.155-5.523C11.943,22.888,9.315,22.296,8.149,23.463z"/>
	<path fill="#72917E" d="M13.291,21.748c-1.166,1.166,0.199,3.021,1.928,4.751c1.729,1.729,3.585,3.094,4.752,1.927
		c1.166-1.166,0.574-3.793-1.156-5.523C17.086,21.174,14.458,20.582,13.291,21.748z"/>
</g>
<path fill="none" stroke="#452A7A" stroke-linecap="round" d="M12.625,17.238c0.057,0.746-0.244,2.238-1.913,2.238"/>
<path fill="none" stroke="#452A7A" stroke-linecap="round" d="M12.639,17.238c-0.058,0.746,0.244,2.238,1.912,2.238"/>
<path fill="none" stroke="#452A7A" stroke-linecap="round" d="M11.529,19.496c0,1.227,2.147,1.227,2.147,0"/>
<path fill="#FBC845" stroke="#020202" stroke-width="0.1519" stroke-linejoin="round" stroke-miterlimit="10" d="M8.917,24.833
	c0,0,2.667,1.208,2.917,2.5l2.917-2.416l-0.792-0.334l-0.416,0.334l-2.875-0.042l-0.375-0.208L8.917,24.833z"/>
<g>
	<g display="none">
		<path display="inline" fill="#72917E" d="M15.406,25.005c-1.143,0-2.197-0.501-2.892-1.375c-0.121-0.153-0.222-0.301-0.307-0.447
			c-0.106,0.164-0.225,0.318-0.355,0.459c-0.692,0.756-1.686,1.189-2.727,1.189c-1.995,0-3.618-1.525-3.618-3.401
			c0-0.55,0.148-1.086,0.44-1.596C5.291,18.62,4.944,17.24,4.944,15.84l0.004-0.102l0.083-0.045l-0.092-0.081
			c0.024-0.406,0.063-0.812,0.127-1.199c-0.311-0.811-1.15-2.041-2.486-3.589c-3.936-4.559,0.614-8.846,0.661-8.889l0.218,0.1
			C3.399,3.781,5.284,4.1,5.364,4.112c3.441,1.551,3.78,3.821,3.792,4.58C9.303,8.619,9.452,8.55,9.604,8.488l-0.26-1.064
			c0.192-1.407,2.595-1.955,2.697-1.978c0.157,0.023,2.513,0.571,2.708,1.928l-0.247,1.049c0.149,0.057,0.297,0.118,0.441,0.185
			c0.029-0.879,0.469-2.998,3.759-4.486C18.815,4.1,20.7,3.781,20.641,2.036l0.218-0.1c0.047,0.043,4.596,4.33,0.66,8.889
			c-1.194,1.383-1.994,2.518-2.379,3.374c0.128,0.502,0.188,1.081,0.188,1.642c0,1.347-0.322,2.679-0.932,3.859
			c0.411,0.568,0.628,1.226,0.628,1.904C19.023,23.479,17.4,25.005,15.406,25.005z"/>
		<path display="inline" fill="#020202" d="M20.771,2.031c0,0,4.549,4.192,0.649,8.708c-1.376,1.594-2.068,2.671-2.398,3.406
			c0.111,0.546,0.176,1.112,0.176,1.695c0,1.413-0.352,2.732-0.955,3.871c0.406,0.535,0.651,1.186,0.651,1.893
			c0,1.808-1.562,3.271-3.487,3.271c-1.146,0-2.154-0.526-2.79-1.326c-0.156-0.197-0.294-0.406-0.401-0.633
			c-0.127,0.23-0.279,0.444-0.458,0.638c-0.64,0.698-1.576,1.147-2.632,1.147c-1.927,0-3.488-1.464-3.488-3.271
			c0-0.582,0.176-1.12,0.46-1.594c-0.646-1.167-1.023-2.531-1.023-3.996c0-0.059,0.007-0.116,0.008-0.174
			c-0.017,0.008-0.03,0.013-0.03,0.013l0.033-0.055c0.01-0.405,0.046-0.802,0.111-1.189c-0.265-0.731-0.947-1.877-2.516-3.695
			c-3.899-4.517,0.65-8.708,0.65-8.708C3.264,3.916,5.344,4.241,5.344,4.241C9.152,5.963,9.052,8.554,9.02,8.909
			C9.258,8.78,9.504,8.666,9.757,8.566L9.471,7.393c0.184-1.285,2.599-1.82,2.599-1.82s2.367,0.535,2.55,1.82L14.35,8.505
			c0.247,0.09,0.489,0.193,0.724,0.311c-0.023-0.588,0.118-2.962,3.683-4.575C18.756,4.241,20.835,3.916,20.771,2.031 M3.153,1.84
			c-0.047,0.044-4.688,4.417-0.67,9.07c1.294,1.5,2.117,2.694,2.445,3.552c-0.059,0.372-0.094,0.761-0.104,1.156l0.066,0.001
			l0.038,0.044l-0.106-0.002L4.818,15.73c-0.002,0.037-0.004,0.073-0.004,0.11c0,1.398,0.34,2.775,0.986,3.992
			c-0.281,0.511-0.422,1.048-0.422,1.598c0,1.947,1.681,3.531,3.748,3.531c1.077,0,2.106-0.449,2.824-1.231
			c0.089-0.098,0.174-0.2,0.253-0.309c0.063,0.095,0.133,0.191,0.21,0.289c0.72,0.906,1.812,1.425,2.994,1.425
			c2.066,0,3.747-1.584,3.747-3.531c0-0.681-0.209-1.339-0.606-1.915c0.596-1.181,0.91-2.508,0.91-3.848
			c0-0.542-0.055-1.102-0.164-1.663c0.392-0.835,1.173-1.934,2.324-3.268c4.017-4.653-0.623-9.026-0.671-9.07l-0.436,0.2
			c0.056,1.628-1.72,1.932-1.796,1.944l-0.066,0.02c-3.138,1.42-3.734,3.416-3.823,4.41c-0.056-0.024-0.112-0.047-0.169-0.07
			l0.217-0.889l0.005-0.098c-0.207-1.445-2.647-2.013-2.751-2.037l-0.113,0c-0.106,0.023-2.594,0.591-2.8,2.037l0.005,0.098
			l0.233,0.957C9.393,8.437,9.334,8.463,9.276,8.49C9.204,7.56,8.666,5.458,5.451,4.004l-0.066-0.02
			C5.309,3.972,3.533,3.668,3.589,2.04L3.153,1.84L3.153,1.84z"/>
	</g>
	
		<path fill="#2D332F" stroke="#020202" stroke-width="0.1777" stroke-linecap="square" stroke-linejoin="bevel" stroke-miterlimit="10" d="
		M14.279,23.827c0,0.561-0.455,1.016-1.016,1.016h-2.323c-0.561,0-1.016-0.455-1.016-1.016l0,0c0-0.561,0.455-1.016,1.016-1.016
		h2.323C13.824,22.812,14.279,23.267,14.279,23.827L14.279,23.827z"/>
	<path fill="#F97D94" stroke="#020202" stroke-width="0.1519" stroke-linejoin="round" stroke-miterlimit="10" d="M14.373,24.521
		l-2.019-1.749v-0.001l0,0.001l-0.001-0.001v0.001l-2.019,1.749c0,0-0.146,3.811,2.019,3.688l0,0c0,0,0,0,0.001,0c0,0,0,0,0,0l0,0
		C14.52,28.331,14.373,24.521,14.373,24.521z"/>
	<g>
		<path fill="#72917E" d="M15.406,25.005c-1.143,0-2.197-0.501-2.892-1.375c-0.121-0.153-0.222-0.301-0.307-0.447
			c-0.106,0.164-0.225,0.318-0.355,0.459c-0.692,0.756-1.686,1.189-2.727,1.189c-1.995,0-3.618-1.525-3.618-3.401
			c0-0.55,0.148-1.086,0.44-1.596C5.291,18.62,4.944,17.24,4.944,15.84l0.004-0.102l0.083-0.045l-0.092-0.081
			c0.024-0.406,0.063-0.812,0.127-1.199c-0.311-0.811-1.15-2.041-2.486-3.589c-3.936-4.559,0.614-8.846,0.661-8.889l0.218,0.1
			C3.399,3.781,5.284,4.1,5.364,4.112c3.44,1.551,3.78,3.821,3.792,4.58c0.947-0.474,1.948-0.714,2.979-0.714
			c0.967,0,1.911,0.212,2.808,0.63c0.029-0.879,0.47-2.997,3.759-4.486C18.815,4.1,20.7,3.781,20.641,2.036l0.218-0.1
			c0.047,0.043,4.596,4.33,0.66,8.889c-1.194,1.383-1.994,2.518-2.379,3.374c0.128,0.502,0.188,1.081,0.188,1.642
			c0,1.347-0.322,2.679-0.932,3.859c0.411,0.568,0.628,1.226,0.628,1.904C19.023,23.479,17.4,25.005,15.406,25.005z"/>
		<g>
			<path fill="#020202" d="M20.771,2.031c0,0,4.549,4.192,0.649,8.708c-1.376,1.594-2.068,2.671-2.398,3.406
				c0.111,0.546,0.176,1.112,0.176,1.695c0,1.413-0.352,2.732-0.955,3.871c0.406,0.535,0.651,1.186,0.651,1.893
				c0,1.808-1.562,3.271-3.487,3.271c-1.146,0-2.154-0.526-2.79-1.326c-0.156-0.197-0.294-0.406-0.401-0.633
				c-0.127,0.23-0.279,0.444-0.458,0.638c-0.64,0.698-1.576,1.147-2.632,1.147c-1.927,0-3.488-1.464-3.488-3.271
				c0-0.582,0.176-1.12,0.46-1.594c-0.646-1.167-1.023-2.531-1.023-3.996c0-0.059,0.007-0.116,0.008-0.174
				c-0.017,0.008-0.03,0.013-0.03,0.013l0.033-0.055c0.01-0.405,0.046-0.802,0.111-1.189c-0.265-0.731-0.947-1.877-2.516-3.695
				c-3.899-4.517,0.65-8.708,0.65-8.708C3.264,3.916,5.344,4.241,5.344,4.241C9.152,5.963,9.052,8.554,9.02,8.909
				c0.941-0.508,1.996-0.801,3.116-0.801c1.049,0,2.042,0.258,2.938,0.708c-0.023-0.588,0.118-2.962,3.683-4.575
				C18.756,4.241,20.835,3.916,20.771,2.031 M3.153,1.84c-0.047,0.044-4.688,4.417-0.67,9.07c1.294,1.5,2.117,2.694,2.445,3.552
				c-0.059,0.372-0.094,0.761-0.104,1.156l0.066,0.001l0.038,0.044l-0.106-0.002L4.818,15.73c-0.002,0.037-0.004,0.073-0.004,0.11
				c0,1.398,0.34,2.775,0.986,3.992c-0.281,0.511-0.422,1.048-0.422,1.598c0,1.947,1.681,3.531,3.748,3.531
				c1.077,0,2.106-0.449,2.824-1.231c0.089-0.098,0.174-0.2,0.253-0.309c0.063,0.095,0.133,0.191,0.21,0.289
				c0.72,0.906,1.812,1.425,2.994,1.425c2.066,0,3.747-1.584,3.747-3.531c0-0.681-0.209-1.339-0.606-1.915
				c0.596-1.181,0.91-2.508,0.91-3.848c0-0.542-0.055-1.102-0.164-1.663c0.392-0.835,1.173-1.934,2.324-3.268
				c4.017-4.653-0.623-9.026-0.671-9.07l-0.436,0.2c0.056,1.628-1.72,1.932-1.796,1.944l-0.066,0.02
				c-3.136,1.419-3.733,3.414-3.823,4.409c-0.862-0.375-1.766-0.564-2.69-0.564c-0.987,0-1.947,0.215-2.859,0.641
				C9.204,7.56,8.665,5.458,5.451,4.004l-0.066-0.02C5.309,3.972,3.533,3.668,3.589,2.04L3.153,1.84L3.153,1.84z"/>
		</g>
	</g>
	<path fill="#CBFD41" d="M14.62,7.393c-0.184-1.285-2.55-1.82-2.55-1.82s-2.416,0.535-2.599,1.82l1.3,5.329l1.275,0.702l0.024,0.013
		l1.25-0.715L14.62,7.393z"/>
	<path fill="#2D332F" d="M5.766,13.393c0,0,0.478-0.563,0.478-1.56c0,0,0.735-0.087,0.563-1.17c0,0,2.592-4.721-2.643-6.022
		c-0.173-0.043-1.04-0.174-1.04-1.17c0,0-3.336,4.505,2.08,8.492C5.204,11.963,5.679,12.916,5.766,13.393z"/>
	<path fill="#2D332F" d="M18.605,13.393c0,0-0.478-0.563-0.478-1.56c0,0-0.735-0.087-0.563-1.17c0,0-2.593-4.721,2.643-6.022
		c0.173-0.043,1.039-0.174,1.039-1.17c0,0,3.336,4.505-2.079,8.492C19.168,11.963,18.692,12.916,18.605,13.393z"/>
	<polygon fill="#020202" points="10.771,12.722 10.153,10.366 11.063,12.153 10.949,9.586 11.778,12.218 11.924,7.686 
		12.378,12.104 13.142,9.554 13.045,12.202 14.052,9.7 13.32,12.722 12.07,13.437 	"/>
	<path fill="#020202" d="M9.471,7.393l0.179,0.796L9.633,6.987l0.698,1.105l0.276-1.999l0.504,2.388l0.958-2.908l0.309,2.843
		l0.341-2.648l0.568,2.421l0.78-1.69l0.322,1.97l0.229-1.076c0,0-0.194-1.576-2.566-1.95C12.054,5.443,9.243,6.304,9.471,7.393z"/>
	<path fill="#80D0A4" stroke="#000000" stroke-width="0.1185" stroke-linejoin="round" stroke-miterlimit="10" d="M4.943,15.646
		h14.465c0,0-0.217,3.076-1.046,4.029H5.815C5.815,19.676,4.855,16.989,4.943,15.646z"/>
	<polygon opacity="0.5" fill="#262626" points="18.093,17.077 6.113,17.077 5.918,16.373 18.31,16.373 	"/>
	<polygon opacity="0.5" fill="#262626" points="18.093,18.041 6.113,18.041 5.918,17.336 18.31,17.336 	"/>
	<polygon opacity="0.5" fill="#262626" points="17.052,18.992 7.154,18.992 6.959,18.288 17.269,18.288 	"/>
	<path fill="#403D22" stroke="#000000" stroke-width="0.0395" stroke-miterlimit="10" d="M13.171,19.936
		c0,0-0.227-0.347-0.971-0.291v-0.001c-0.004,0-0.006,0.001-0.01,0c-0.004,0.001-0.006,0-0.01,0v0.001
		c-0.745-0.056-0.971,0.291-0.971,0.291c-0.845,0.845,0.731,1.593,0.731,1.593h0.24h0.02h0.24
		C12.44,21.528,14.016,20.78,13.171,19.936z"/>
	<g>
		<circle cx="8.658" cy="21.82" r="0.179"/>
		<circle cx="9.471" cy="22.243" r="0.179"/>
		<circle cx="8.837" cy="22.389" r="0.179"/>
		<circle cx="8.106" cy="22.324" r="0.179"/>
		<circle cx="8.625" cy="22.795" r="0.179"/>
	</g>
	<g>
		<circle cx="15.677" cy="21.82" r="0.179"/>
		<circle cx="14.864" cy="22.243" r="0.179"/>
		<circle cx="15.498" cy="22.389" r="0.179"/>
		<circle cx="16.229" cy="22.324" r="0.179"/>
		<circle cx="15.709" cy="22.795" r="0.179"/>
	</g>
</g>
</svg>
